<svg width="92" height="56" viewBox="0 0 92 56" fill="none" xmlns="http://www.w3.org/2000/svg">
<path d="M89.4692 3.40557C87.852 1.79039 85.6598 0.88316 83.3742 0.88316C81.0885 0.88316 78.8964 1.79039 77.2792 3.40557L45.9992 34.6856L14.7192 3.40557C13.0842 1.88205 10.9216 1.05264 8.68717 1.09206C6.45271 1.13148 4.32078 2.03667 2.74052 3.61692C1.16028 5.19717 0.255081 7.3291 0.21566 9.56356C0.176231 11.798 1.00565 13.9606 2.52917 15.5956L39.9042 52.9706C41.5214 54.5858 43.7135 55.493 45.9992 55.493C48.2848 55.493 50.477 54.5858 52.0942 52.9706L89.4692 15.5956C91.0843 13.9784 91.9916 11.7862 91.9916 9.50057C91.9916 7.21494 91.0843 5.02276 89.4692 3.40557Z" fill="black"/>
</svg>
