<svg width="68" height="50" viewBox="0 0 68 50" fill="none" xmlns="http://www.w3.org/2000/svg">
<path d="M3.53817 49.1609H63.7718C64.3816 49.159 64.9794 48.9956 65.5007 48.6883C66.0221 48.381 66.4473 47.9413 66.7306 47.4167C67.0138 46.8921 67.1445 46.3023 67.1084 45.711C67.0723 45.1196 66.8709 44.549 66.5258 44.0605L36.409 1.8014C35.1608 0.0492726 32.1558 0.0492726 30.9043 1.8014L0.787505 44.0605C0.438902 44.5479 0.234474 45.1189 0.19643 45.7112C0.158386 46.3036 0.288181 46.8947 0.571714 47.4205C0.855247 47.9462 1.28167 48.3864 1.80466 48.6932C2.32765 49.0001 2.9272 49.1618 3.53817 49.1609Z" fill="#53AC65"/>
</svg>
