<svg width="66" height="94" viewBox="0 0 66 94" fill="none" xmlns="http://www.w3.org/2000/svg">
<path d="M57.1425 35.2502C55.928 34.9545 54.6597 34.9585 53.4471 35.262C53.1915 33.4064 52.3663 31.676 51.0854 30.3094C50.3105 29.5268 49.3881 28.9058 48.3716 28.4822C47.3551 28.0587 46.2646 27.841 45.1634 27.8419L44.852 27.8477H44.8109C43.5184 27.8477 42.2846 28.1062 41.1625 28.5762C40.8121 27.5485 40.229 26.6156 39.4587 25.8502C38.5927 25.0215 37.5617 24.3844 36.4331 23.9805C35.3044 23.5767 34.1034 23.415 32.9081 23.5061H32.9375C34.6866 21.1886 35.7096 18.4047 35.8772 15.506C36.0448 12.6073 35.3496 9.72403 33.8792 7.22035C32.4089 4.71666 30.2295 2.70494 27.6163 1.43934C25.0032 0.173742 22.0735 -0.288951 19.1975 0.109718C16.3215 0.508388 13.6282 1.75053 11.4579 3.67922C9.28749 5.60791 7.73746 8.13661 7.0036 10.9458C6.26974 13.7551 6.38497 16.7188 7.33474 19.4625C8.2845 22.2063 10.0262 24.607 12.3397 26.3614L12.375 42.0124C9.2495 42.0922 6.25955 43.3053 3.962 45.4257C0.625 49.0624 0.625 54.7024 0.625 61.7524V65.9824C0.708968 69.1303 1.49151 72.2201 2.91602 75.0285C4.34053 77.8369 6.37141 80.2936 8.86175 82.2209L10.965 84.3124C18.25 91.7736 24.9475 94.0061 40.4575 94.0061C57.3775 94.0061 65.25 84.5474 65.25 64.2786V49.5324C65.25 45.0086 63.9575 37.0715 57.1425 35.2502ZM59.375 49.0565V64.2727C59.375 84.0715 51.7962 88.1252 40.4575 88.1252C25.1825 88.1252 20.4825 85.834 15.195 80.3115L13.08 78.1377C11.1251 76.7568 9.51454 74.9441 8.37342 72.8401C7.23229 70.7362 6.59124 68.3976 6.5 66.0059V61.6877C5.74369 57.5131 6.35783 53.2059 8.25075 49.409C9.3435 48.6335 10.7829 48.0695 12.3515 47.999L12.3691 52.1115V50.819L10.3716 59.6315C10.3134 59.7627 10.2815 59.904 10.2779 60.0475C10.2743 60.1909 10.299 60.3337 10.3505 60.4676C10.4021 60.6016 10.4795 60.724 10.5784 60.828C10.6773 60.932 10.7957 61.0156 10.9268 61.0738C11.058 61.1321 11.1993 61.1639 11.3428 61.1675C11.4862 61.1712 11.629 61.1465 11.763 61.0949C11.8969 61.0434 12.0194 60.9659 12.1234 60.8671C12.2274 60.7682 12.3109 60.6498 12.3691 60.5186L18.2441 53.404C18.2825 53.2279 18.2825 53.0455 18.2441 52.8694V19.9165L18.2383 19.6874C18.2383 18.1834 18.7259 16.7969 19.5484 15.6689C19.8487 15.3542 20.214 15.1087 20.6188 14.9494C21.0236 14.7901 21.4582 14.7209 21.8925 14.7465C23.1262 14.7465 24.1191 15.7452 24.1191 16.979V39.774C24.1191 40.5531 24.4286 41.3002 24.9795 41.8511C25.5304 42.402 26.2776 42.7115 27.0566 42.7115C27.8357 42.7115 28.5829 42.402 29.1338 41.8511C29.6846 41.3002 29.9941 40.5531 29.9941 39.774V32.019C30.009 31.65 30.0977 31.2877 30.255 30.9536C30.4123 30.6195 30.6351 30.3204 30.91 30.0739C31.185 29.8274 31.5067 29.6385 31.8559 29.5185C32.2052 29.3985 32.575 29.3498 32.9434 29.3752C33.3 29.3069 33.6673 29.3182 34.0191 29.4082C34.3709 29.4982 34.6985 29.6648 34.9785 29.8959C35.2585 30.1271 35.4841 30.4173 35.639 30.7457C35.794 31.0741 35.8746 31.4326 35.875 31.7957L35.8691 31.9661V39.774C35.8691 40.5531 36.1786 41.3002 36.7295 41.8511C37.2804 42.402 38.0275 42.7115 38.8066 42.7115C39.5857 42.7115 40.3329 42.402 40.8838 41.8511C41.4346 41.3002 41.7441 40.5531 41.7441 39.774V36.014C41.8475 35.3312 42.214 34.7159 42.7651 34.2998C43.3163 33.8837 44.0084 33.6998 44.6934 33.7874C45.0513 33.7477 45.4135 33.7848 45.756 33.8963C46.0984 34.0077 46.4131 34.1909 46.6791 34.4336C47.2666 35.1915 47.6191 36.1609 47.6191 37.2125V42.124C47.6284 42.901 47.9452 43.6427 48.5002 44.1867C49.0552 44.7306 49.8031 45.0325 50.5801 45.0262C51.2525 45.0267 51.9054 44.8009 52.434 44.3853C52.9625 43.9698 53.3359 43.3885 53.4941 42.735C53.6306 42.1147 53.9596 41.5533 54.4341 41.1311C54.6399 41.0378 54.8632 40.9895 55.0892 40.9895C55.3151 40.9895 55.5385 41.0378 55.7443 41.1311C57.0187 41.9589 58.0349 43.1281 58.6769 44.5055C59.3188 45.883 59.5607 47.4131 59.375 48.9214L59.3809 48.8802L59.375 49.0565Z" fill="white"/>
</svg>
