<svg width="81" height="81" viewBox="0 0 81 81" fill="none" xmlns="http://www.w3.org/2000/svg">
<path d="M40.7074 6.75024C59.1929 6.75024 74.1775 21.7348 74.1775 40.2203C74.1775 58.7059 59.1929 73.6904 40.7074 73.6904C22.2219 73.6904 7.2373 58.7059 7.2373 40.2203C7.2373 21.7348 22.2219 6.75024 40.7074 6.75024ZM40.7074 13.4443C33.6059 13.4443 26.7953 16.2653 21.7739 21.2868C16.7524 26.3083 13.9313 33.1189 13.9313 40.2203C13.9313 47.3218 16.7524 54.1324 21.7739 59.1539C26.7953 64.1754 33.6059 66.9964 40.7074 66.9964C47.8088 66.9964 54.6194 64.1754 59.6409 59.1539C64.6624 54.1324 67.4835 47.3218 67.4835 40.2203C67.4835 33.1189 64.6624 26.3083 59.6409 21.2868C54.6194 16.2653 47.8088 13.4443 40.7074 13.4443ZM40.7074 20.1383C41.5272 20.1384 42.3184 20.4394 42.931 20.9841C43.5437 21.5289 43.9351 22.2795 44.031 23.0937L44.0544 23.4853V38.8347L53.1147 47.895C53.715 48.4973 54.0635 49.3056 54.0895 50.1555C54.1154 51.0055 53.8169 51.8335 53.2545 52.4713C52.6921 53.1091 51.908 53.509 51.0614 53.5896C50.2149 53.6703 49.3694 53.4257 48.6967 52.9055L48.3821 52.6277L38.3411 42.5867C37.8209 42.066 37.4868 41.3884 37.3905 40.6588L37.3604 40.2203V23.4853C37.3604 22.5976 37.713 21.7463 38.3407 21.1186C38.9684 20.4909 39.8197 20.1383 40.7074 20.1383Z" fill="#FFAC33"/>
</svg>
