<svg width="80" height="80" viewBox="0 0 80 80" fill="none" xmlns="http://www.w3.org/2000/svg">
<path d="M66.12 34.9533C66.0423 35.5321 65.7993 36.076 65.42 36.52L32.92 72.22C32.5079 72.7527 31.9352 73.1384 31.2867 73.32C31.01 73.3533 30.73 73.3533 30.4533 73.32C29.9817 73.3178 29.5159 73.2156 29.0867 73.02C28.4184 72.7061 27.8858 72.1617 27.5867 71.4867C27.2985 70.8854 27.2165 70.2059 27.3533 69.5533L30.22 46.6867H18.12C17.4279 46.6467 16.7495 46.4771 16.12 46.1867C15.5029 45.8617 14.9741 45.3915 14.5792 44.8166C14.1843 44.2417 13.9352 43.5793 13.8533 42.8867C13.782 42.1836 13.885 41.4738 14.1533 40.82L26.7533 9.32001C27.0867 8.52335 27.64 7.84001 28.3533 7.35335C29.0655 6.88561 29.9014 6.64181 30.7533 6.65335H54.8867C55.5833 6.66668 56.2667 6.83668 56.8867 7.15334C57.5133 7.50334 58.05 7.99668 58.4533 8.58668C58.8267 9.18335 59.0533 9.85334 59.12 10.5533C59.1915 11.2487 59.0765 11.9506 58.7867 12.5867L50.82 31.1533H62.9867C63.5912 31.1736 64.1789 31.3579 64.6867 31.6867C65.222 32.0445 65.6423 32.5497 65.8966 33.1412C66.151 33.7328 66.2286 34.3853 66.12 35.02V34.9533Z" fill="#FFAC33"/>
</svg>
