<svg width="85" height="85" viewBox="0 0 85 85" fill="none" xmlns="http://www.w3.org/2000/svg">
<path d="M76.5 31.3353V61.625C76.5 64.4429 75.3806 67.1454 73.388 69.138C71.3954 71.1306 68.6929 72.25 65.875 72.25H19.125C16.3071 72.25 13.6046 71.1306 11.612 69.138C9.61942 67.1454 8.5 64.4429 8.5 61.625V31.3353L41.4205 50.7067C41.7476 50.8996 42.1203 51.0014 42.5 51.0014C42.8797 51.0014 43.2524 50.8996 43.5795 50.7067L76.5 31.3353ZM65.875 17C68.4894 16.9996 71.0121 17.9631 72.9606 19.7061C74.9091 21.4492 76.1466 23.8495 76.4362 26.4478L42.5 46.41L8.56375 26.4478C8.85342 23.8495 10.0909 21.4492 12.0394 19.7061C13.9879 17.9631 16.5106 16.9996 19.125 17H65.875Z" fill="black"/>
</svg>
