<svg width="75" height="75" viewBox="0 0 75 75" fill="none" xmlns="http://www.w3.org/2000/svg">
<g clip-path="url(#clip0_80596_247)">
<path d="M37.5 16.6667L22.9167 0H0L29.1667 35.4167L53.1687 25.5208L37.5 16.6667Z" fill="#55ACEE"/>
<path d="M52.0833 0L37.5 16.6667L48.7292 31.9L51.2854 28.7979L75 0H52.0833Z" fill="#3B88C3"/>
<path d="M48.4586 33.3875C48.6252 32.9354 48.7315 32.4542 48.7315 31.9438C48.7315 30.8387 48.2925 29.7789 47.5111 28.9975C46.7297 28.2161 45.6699 27.7771 44.5648 27.7771H30.6752C29.5702 27.7771 28.5104 28.2161 27.729 28.9975C26.9476 29.7789 26.5086 30.8387 26.5086 31.9438C26.5086 32.4542 26.6127 32.9354 26.7815 33.3875C19.994 37.1917 15.3981 44.4438 15.3981 52.7771C15.3981 65.05 25.3461 75 37.6211 75C49.894 75 59.844 65.05 59.844 52.7771C59.8419 44.4438 55.2481 37.1917 48.4586 33.3875Z" fill="#FFAC33"/>
<path d="M37.6211 69.4438C46.8258 69.4438 54.2877 61.9819 54.2877 52.7771C54.2877 43.5724 46.8258 36.1104 37.6211 36.1104C28.4163 36.1104 20.9544 43.5724 20.9544 52.7771C20.9544 61.9819 28.4163 69.4438 37.6211 69.4438Z" fill="#FFD983"/>
<path d="M44.3296 63.8208C44.0261 63.8202 43.7304 63.7248 43.4837 63.5479L37.5004 59.2583L31.5191 63.5479C31.2713 63.726 30.9737 63.8214 30.6685 63.8207C30.3634 63.82 30.0662 63.7232 29.8192 63.544C29.5722 63.3648 29.3879 63.1123 29.2925 62.8225C29.1972 62.5326 29.1955 62.22 29.2879 61.9292L31.5191 54.7292L25.5921 50.5521C25.347 50.3707 25.1652 50.1169 25.0723 49.8265C24.9793 49.5362 24.98 49.224 25.0742 48.934C25.1684 48.644 25.3513 48.391 25.5972 48.2107C25.843 48.0304 26.1393 47.9319 26.4442 47.9292L33.7858 47.9188L36.1233 40.8979C36.219 40.6076 36.4037 40.3549 36.6514 40.1758C36.899 39.9966 37.1968 39.9002 37.5025 39.9002C37.8081 39.9002 38.106 39.9966 38.3536 40.1758C38.6012 40.3549 38.786 40.6076 38.8817 40.8979L41.1796 47.9188L48.5587 47.9292C48.8642 47.9306 49.1615 48.0284 49.4082 48.2085C49.655 48.3887 49.8386 48.642 49.933 48.9326C50.0274 49.2232 50.0277 49.5361 49.934 49.8268C49.8402 50.1176 49.6572 50.3714 49.4108 50.5521L43.4817 54.7292L45.7129 61.9292C45.783 62.1468 45.8005 62.3779 45.7641 62.6036C45.7277 62.8292 45.6384 63.0431 45.5034 63.2276C45.3685 63.4121 45.1918 63.5621 44.9877 63.6652C44.7837 63.7683 44.5582 63.8216 44.3296 63.8208Z" fill="#FFAC33"/>
</g>
<defs>
<clipPath id="clip0_80596_247">
<rect width="75" height="75" fill="white"/>
</clipPath>
</defs>
</svg>
