<svg width="94" height="94" viewBox="0 0 94 94" fill="none" xmlns="http://www.w3.org/2000/svg">
<path d="M89.6819 22.0311C89.259 21.7672 88.7759 21.6152 88.278 21.5895C87.7802 21.5638 87.284 21.6652 86.8362 21.8842C71.0728 29.5952 59.8148 25.982 47.9143 22.1706C35.3969 18.1867 22.4719 14.0558 4.58617 22.7875C4.09222 23.0287 3.67584 23.4036 3.38439 23.8697C3.09294 24.3357 2.93811 24.8742 2.9375 25.4239V69.4607C2.93743 69.9591 3.06417 70.4493 3.3058 70.8853C3.54743 71.3212 3.89601 71.6884 4.31871 71.9525C4.74142 72.2165 5.22436 72.3687 5.72209 72.3946C6.21981 72.4206 6.71596 72.3195 7.16383 72.1008C22.9272 64.3899 34.1852 68.003 46.1041 71.8144C53.1688 74.0726 60.3656 76.3749 68.5025 76.3749C74.7777 76.3749 81.6221 75.0089 89.3991 71.2122C89.8931 70.971 90.3095 70.5961 90.6009 70.13C90.8924 69.664 91.0472 69.1255 91.0478 68.5758V24.539C91.0522 24.0393 90.9291 23.5467 90.6901 23.1079C90.4511 22.669 90.1041 22.2984 89.6819 22.0311ZM17.625 55.8124C17.625 56.5914 17.3155 57.3386 16.7646 57.8895C16.2137 58.4404 15.4666 58.7499 14.6875 58.7499C13.9084 58.7499 13.1613 58.4404 12.6104 57.8895C12.0595 57.3386 11.75 56.5914 11.75 55.8124V32.3124C11.75 31.5333 12.0595 30.7861 12.6104 30.2352C13.1613 29.6843 13.9084 29.3749 14.6875 29.3749C15.4666 29.3749 16.2137 29.6843 16.7646 30.2352C17.3155 30.7861 17.625 31.5333 17.625 32.3124V55.8124ZM47 58.7499C44.6761 58.7499 42.4043 58.0607 40.472 56.7696C38.5398 55.4785 37.0337 53.6434 36.1444 51.4964C35.2551 49.3494 35.0224 46.9868 35.4758 44.7075C35.9291 42.4283 37.0482 40.3346 38.6915 38.6913C40.3348 37.0481 42.4284 35.929 44.7077 35.4756C46.987 35.0223 49.3495 35.2549 51.4965 36.1443C53.6436 37.0336 55.4787 38.5396 56.7698 40.4719C58.0609 42.4042 58.75 44.6759 58.75 46.9999C58.75 50.1161 57.5121 53.1048 55.3085 55.3084C53.1049 57.5119 50.1163 58.7499 47 58.7499ZM82.25 61.6874C82.25 62.4664 81.9405 63.2136 81.3896 63.7645C80.8387 64.3154 80.0916 64.6249 79.3125 64.6249C78.5334 64.6249 77.7863 64.3154 77.2354 63.7645C76.6845 63.2136 76.375 62.4664 76.375 61.6874V38.1874C76.375 37.4083 76.6845 36.6611 77.2354 36.1102C77.7863 35.5593 78.5334 35.2499 79.3125 35.2499C80.0916 35.2499 80.8387 35.5593 81.3896 36.1102C81.9405 36.6611 82.25 37.4083 82.25 38.1874V61.6874Z" fill="#1A8EFD"/>
</svg>
