<svg width="86" height="86" viewBox="0 0 86 86" fill="none" xmlns="http://www.w3.org/2000/svg">
<path fill-rule="evenodd" clip-rule="evenodd" d="M4.47913 42.9998C4.47876 38.4199 6.00437 33.9704 8.81492 30.3542C11.6255 26.738 15.5608 24.1613 19.9991 23.0312C24.4374 21.9011 29.1258 22.2819 33.3235 24.1136C37.5213 25.9452 40.9891 29.1233 43.1791 33.1457H75.25C78.7115 33.1457 81.5208 35.955 81.5208 39.4165V48.3748C81.5208 49.0876 81.2376 49.7712 80.7336 50.2752C80.2296 50.7792 79.5461 51.0623 78.8333 51.0623H70.7708V57.3332C70.7708 58.046 70.4876 58.7295 69.9836 59.2335C69.4796 59.7375 68.7961 60.0207 68.0833 60.0207H59.125C58.4122 60.0207 57.7286 59.7375 57.2246 59.2335C56.7206 58.7295 56.4375 58.046 56.4375 57.3332V51.0623H44.0499C42.1902 55.4336 38.8774 59.0282 34.6721 61.2377C30.4669 63.4473 25.6274 64.1362 20.9726 63.1878C16.3178 62.2393 12.1336 59.7119 9.1281 56.0332C6.12257 52.3544 4.48027 47.7503 4.47913 42.9998ZM25.0833 35.8332C23.1826 35.8332 21.3597 36.5882 20.0157 37.9323C18.6717 39.2763 17.9166 41.0991 17.9166 42.9998C17.9166 44.9006 18.6717 46.7234 20.0157 48.0674C21.3597 49.4115 23.1826 50.1665 25.0833 50.1665C26.984 50.1665 28.8069 49.4115 30.1509 48.0674C31.4949 46.7234 32.25 44.9006 32.25 42.9998C32.25 41.0991 31.4949 39.2763 30.1509 37.9323C28.8069 36.5882 26.984 35.8332 25.0833 35.8332Z" fill="black"/>
</svg>
