<svg width="100" height="100" viewBox="0 0 100 100" fill="none" xmlns="http://www.w3.org/2000/svg">
<path d="M50.0003 49.9998C45.4169 49.9998 41.4933 48.3679 38.2294 45.104C34.9655 41.8401 33.3336 37.9165 33.3336 33.3332C33.3336 28.7498 34.9655 24.8262 38.2294 21.5623C41.4933 18.2984 45.4169 16.6665 50.0003 16.6665C54.5836 16.6665 58.5072 18.2984 61.7711 21.5623C65.035 24.8262 66.6669 28.7498 66.6669 33.3332C66.6669 37.9165 65.035 41.8401 61.7711 45.104C58.5072 48.3679 54.5836 49.9998 50.0003 49.9998ZM16.6669 83.3332V71.6665C16.6669 69.3054 17.2753 67.1359 18.4919 65.1582C19.7086 63.1804 21.3225 61.6693 23.3336 60.6248C27.6392 58.4721 32.0142 56.8582 36.4586 55.7832C40.903 54.7082 45.4169 54.1693 50.0003 54.1665C54.5836 54.1637 59.0975 54.7026 63.5419 55.7832C67.9864 56.8637 72.3614 58.4776 76.6669 60.6248C78.6808 61.6665 80.2961 63.1776 81.5128 65.1582C82.7294 67.1387 83.3364 69.3082 83.3336 71.6665V83.3332H16.6669Z" fill="black"/>
</svg>
