<svg width="126" height="126" viewBox="0 0 126 126" fill="none" xmlns="http://www.w3.org/2000/svg">
<path d="M63 0.5C54.7924 0.5 46.6651 2.11661 39.0823 5.25753C31.4994 8.39845 24.6095 13.0022 18.8058 18.8058C7.0848 30.5268 0.5 46.424 0.5 63C0.5 79.576 7.0848 95.4732 18.8058 107.194C24.6095 112.998 31.4994 117.602 39.0823 120.742C46.6651 123.883 54.7924 125.5 63 125.5C79.576 125.5 95.4732 118.915 107.194 107.194C118.915 95.4732 125.5 79.576 125.5 63C125.5 54.7924 123.883 46.6651 120.742 39.0823C117.602 31.4994 112.998 24.6095 107.194 18.8058C101.391 13.0022 94.5006 8.39845 86.9177 5.25753C79.3349 2.11661 71.2076 0.5 63 0.5ZM63 40.4375C73.0845 46.9893 84.8491 50.4839 96.875 50.5C101.75 50.5 106.438 49.9375 110.938 48.875C112.25 53.3125 113 58.0625 113 63C113 90.5625 90.5625 113 63 113C44.25 113 27.9375 102.625 19.25 87.3125L30.1875 75.5V69.25C30.1875 67.178 31.0106 65.1909 32.4757 63.7257C33.9409 62.2606 35.928 61.4375 38 61.4375C40.072 61.4375 42.0591 62.2606 43.5243 63.7257C44.9894 65.1909 45.8125 67.178 45.8125 69.25V75.5H63M88 61.4375C85.928 61.4375 83.9409 62.2606 82.4757 63.7257C81.0106 65.1909 80.1875 67.178 80.1875 69.25C80.1875 71.322 81.0106 73.3091 82.4757 74.7743C83.9409 76.2394 85.928 77.0625 88 77.0625C90.072 77.0625 92.0592 76.2394 93.5243 74.7743C94.9894 73.3091 95.8125 71.322 95.8125 69.25C95.8125 67.178 94.9894 65.1909 93.5243 63.7257C92.0592 62.2606 90.072 61.4375 88 61.4375Z" fill="#3678DD"/>
</svg>
