<svg width="126" height="120" viewBox="0 0 126 120" fill="none" xmlns="http://www.w3.org/2000/svg">
<path d="M106.75 0.5H19.2499C8.91242 0.5 0.499922 8.9125 0.499922 19.25V36.9437C0.499922 43.525 2.88742 49.5062 6.74992 54.1062V113C6.74992 114.658 7.4084 116.247 8.5805 117.419C9.75261 118.592 11.3423 119.25 12.9999 119.25H62.9999C64.6575 119.25 66.2472 118.592 67.4193 117.419C68.5914 116.247 69.2499 114.658 69.2499 113V81.75H94.2499V113C94.2499 114.658 94.9084 116.247 96.0805 117.419C97.2526 118.592 98.8423 119.25 100.5 119.25H113C114.658 119.25 116.247 118.592 117.419 117.419C118.591 116.247 119.25 114.658 119.25 113V54.1C123.112 49.5063 125.5 43.525 125.5 36.9375V19.25C125.5 8.9125 117.087 0.5 106.75 0.5ZM113 19.25V36.9437C113 44.0687 107.694 50.1437 101.181 50.4875L100.5 50.5C93.6062 50.5 87.9999 44.8937 87.9999 38V13H106.75C110.2 13 113 15.8062 113 19.25ZM50.4999 38V13H75.4999V38C75.4999 44.8937 69.8937 50.5 62.9999 50.5C56.1062 50.5 50.4999 44.8937 50.4999 38ZM12.9999 19.25C12.9999 15.8062 15.7999 13 19.2499 13H37.9999V38C37.9999 44.8937 32.3937 50.5 25.4999 50.5L24.8187 50.4812C18.3062 50.1437 12.9999 44.0687 12.9999 36.9437V19.25ZM50.4999 88H25.4999V69.25H50.4999V88Z" fill="#3678DD"/>
</svg>
