<svg width="100" height="100" viewBox="0 0 100 100" fill="none" xmlns="http://www.w3.org/2000/svg">
<path d="M50.0003 49.9998C45.417 49.9998 41.4934 48.3679 38.2295 45.104C34.9656 41.8401 33.3337 37.9165 33.3337 33.3332C33.3337 28.7498 34.9656 24.8262 38.2295 21.5623C41.4934 18.2984 45.417 16.6665 50.0003 16.6665C54.5837 16.6665 58.5073 18.2984 61.7712 21.5623C65.035 24.8262 66.667 28.7498 66.667 33.3332C66.667 37.9165 65.035 41.8401 61.7712 45.104C58.5073 48.3679 54.5837 49.9998 50.0003 49.9998ZM16.667 83.3332V71.6665C16.667 69.3054 17.2753 67.1359 18.492 65.1582C19.7087 63.1804 21.3225 61.6693 23.3337 60.6248C27.6392 58.4721 32.0142 56.8582 36.4587 55.7832C40.9031 54.7082 45.417 54.1693 50.0003 54.1665C54.5837 54.1637 59.0975 54.7026 63.542 55.7832C67.9864 56.8637 72.3614 58.4776 76.667 60.6248C78.6809 61.6665 80.2962 63.1776 81.5128 65.1582C82.7295 67.1387 83.3364 69.3082 83.3337 71.6665V83.3332H16.667Z" fill="black"/>
</svg>
