<svg width="80" height="49" viewBox="0 0 80 49" fill="none" xmlns="http://www.w3.org/2000/svg">
<path d="M34.4664 0.592161C35.5034 0.592161 36.3825 0.997934 37.1039 1.80948C37.8704 2.62103 38.2536 3.47766 38.2536 4.37938C38.2536 5.23601 37.9606 6.04756 37.3744 6.81402L23.781 24.7357L19.1823 18.4462L31.1526 2.5534C32.0994 1.24591 33.204 0.592161 34.4664 0.592161ZM4.30392 0.456905C5.61141 0.456905 6.71601 1.04302 7.61773 2.21525L37.3744 41.7781C37.9155 42.4995 38.186 43.3336 38.186 44.2804C38.186 45.5428 37.7351 46.5347 36.8334 47.2561C35.9317 47.9775 35.03 48.3381 34.1283 48.3381C32.8208 48.3381 31.7162 47.752 30.8144 46.5798L1.05773 7.01691C0.471615 6.29553 0.178557 5.48398 0.178557 4.58227C0.178557 3.41003 0.606873 2.44068 1.46351 1.67422C2.36522 0.862677 3.31203 0.456905 4.30392 0.456905ZM3.69526 48.3381C2.70337 48.3381 1.84674 47.9775 1.12536 47.2561C0.403987 46.4896 0.0432992 45.6555 0.0432992 44.7538C0.0432992 43.7619 0.381444 42.8377 1.05773 41.981L14.7864 23.3831L19.2499 29.9431L7.0767 46.4445C6.17498 47.7069 5.04784 48.3381 3.69526 48.3381ZM65.9174 0.659789C68.2619 0.659789 70.4486 1.33608 72.4774 2.68866C74.5514 4.04123 76.2196 5.86721 77.482 8.16659C78.7444 10.466 79.3756 13.0359 79.3756 15.8763C79.3756 18.6716 78.7444 21.219 77.482 23.5183C76.2196 25.8177 74.5514 27.6663 72.4774 29.0639C70.4486 30.4165 68.2619 31.0928 65.9174 31.0928H53.4737L54.15 29.8755V43.8746C54.15 45.0469 53.7893 46.0388 53.0679 46.8503C52.3466 47.6168 51.3998 48 50.2275 48C49.1004 48 48.1761 47.6168 47.4547 46.8503C46.7334 46.0388 46.3727 45.0469 46.3727 43.8746V4.78515C46.3727 3.61292 46.7559 2.64357 47.5224 1.87711C48.3339 1.06556 49.3258 0.659789 50.498 0.659789H65.9174ZM65.9174 23.3831C66.7741 23.3831 67.6082 23.0224 68.4197 22.301C69.2312 21.5797 69.9075 20.6554 70.4486 19.5282C70.9896 18.356 71.2601 17.1387 71.2601 15.8763C71.2601 14.5688 70.9896 13.3515 70.4486 12.2243C69.9075 11.0972 69.2312 10.1955 68.4197 9.51917C67.6082 8.7978 66.7741 8.43711 65.9174 8.43711H53.3385L54.15 7.21979V24.4652L53.4061 23.3831H65.9174Z" fill="#1A8EFD"/>
</svg>
